<svg width="83" height="65" viewBox="0 0 83 65" fill="none" xmlns="http://www.w3.org/2000/svg">
<path d="M31.776 14.4463C27.5322 10.2953 30.059 3.60185 38.2887 4.25173C49.9842 -1.24375 62.0688 5.09288 66.8735 17.5555C71.9759 31.3058 67.0473 43.1075 63.0368 49.1656C53.6713 60.8826 35.9115 67.9195 20.2108 53.0388C18.3641 52.0846 16.3259 51.5058 14.8259 51.0058C11.459 49.2293 13.3256 47.5058 14.3257 45.0058C14.9814 39.4704 19.3256 42.0058 22.164 41.1896C24.567 40.4987 25.3256 41.0058 27.9394 43.7473C30.6049 46.5263 33.446 44.8397 33.8906 39.5302C33.7867 36.5733 33.8434 35.4195 30.8163 31.0077C25.9293 29.3764 24.2579 22.0735 29.4373 20.8802C29.4373 20.8802 36.0197 18.5974 31.776 14.4463Z" fill="#FFFF54"/>
<path d="M38.2887 4.25173C30.059 3.60185 27.5322 10.2953 31.776 14.4463C36.0197 18.5974 29.4373 20.8802 29.4373 20.8802C24.2579 22.0735 25.9293 29.3764 30.8163 31.0077M38.2887 4.25173C49.9842 -1.24375 62.0688 5.09288 66.8735 17.5555C71.9759 31.3058 67.0473 43.1075 63.0368 49.1656C53.6713 60.8826 35.9115 67.9195 20.2108 53.0388C18.3641 52.0846 16.3259 51.5058 14.8259 51.0058C11.459 49.2293 13.3256 47.5058 14.3257 45.0058C14.9814 39.4704 19.3256 42.0058 22.164 41.1896C24.567 40.4987 25.3256 41.0058 27.9394 43.7473C30.6049 46.5263 33.446 44.8397 33.8906 39.5302C33.7867 36.5733 33.8434 35.4195 30.8163 31.0077M38.2887 4.25173C54.4929 7.71631 57.5666 25.475 54.8306 28.6385C47.9207 33.2537 39.8184 34.985 30.8163 31.0077" stroke="#2D2D2F" stroke-width="1.33694"/>
<path d="M41.6553 9.94951C35.5631 6.24415 30.8993 9.06588 32.7813 14.7045L33.9503 17.2602L33.1434 19.7916L30.5829 20.7985C28.3615 21.9462 28.7815 24.8343 30.9684 26.2138C35.5124 29.0801 45.0026 31.7003 51.6506 25.5662C50.622 20.3616 49.9092 14.9696 41.6553 9.94951Z" fill="#2D2D2F"/>
<path d="M69.6411 23.502C68.2708 17.5802 67.0259 14.3048 62.8259 8.64859C71.0688 8.65131 81.836 12.2433 78.3634 16.6138C76.0672 19.1281 74.9375 20.6744 74.154 24.5002C73.7726 26.0477 73.1731 26.3741 69.6411 23.502Z" fill="#FFFF54"/>
<path d="M67.3937 42.4277C69.1442 39.0696 69.189 36.3133 69.9069 31.6821C72.0151 36.3936 77.8256 40.1744 74.1447 43.4087C71.7711 46.4403 71.4044 45.1344 69.7401 44.3599C68.9054 43.8905 66.3839 44.1252 67.3937 42.4277Z" fill="#FFFF54"/>
<path d="M14.4976 51.5736C16.6426 52.0787 16.1409 51.6953 17.0094 52.5487C17.1984 52.7344 17.1121 53.0603 16.8561 53.1286C13.5172 54.0185 13.9762 54.4559 10.5832 56.4763C6.93166 58.3988 5.10967 58.0111 3.74384 55.149C2.67814 52.9158 4.49661 46.9785 4.72676 41.2248C5.85849 33.6967 9.96877 33.2995 16.0213 31.1846C24.2186 28.1654 24.8733 29.5855 25.3259 35.5058C25.4245 36.6786 25.2104 37.4969 25.0115 38.214C24.9084 38.5855 23.8626 39.6803 23.5117 39.84C22.9771 40.0833 22.055 40.341 20.4538 40.4745L17.9538 40.4745C14.965 40.4745 14.6605 41.0908 13.4672 44.9312C13.4585 44.9593 13.4454 44.9878 13.4297 45.0127C11.1397 48.6538 11.9626 50.9766 14.4976 51.5736Z" fill="#FFFF54"/>
<ellipse cx="2.0834" cy="2.41297" rx="2.0834" ry="2.41297" transform="matrix(0.86394 -0.503595 0.501849 0.864955 56.0847 15.3607)" fill="#2D2D2F"/>
<path d="M52.4771 36.5182C50.5217 39.3296 49.505 39.7917 46.568 38.1065M52.4239 48.1506C49.3921 49.7708 47.8971 51.2322 43.3631 48.7956C40.6455 46.7928 38.6081 46.0514 39.7833 37.7116C40.5873 34.5619 41.9547 35.2009 45.4933 37.4523C45.8789 37.6977 46.2357 37.9158 46.568 38.1065M46.568 38.1065C44.8968 41.1092 44.9605 44.4114 48.1233 45.5116C52.6417 47.0832 52.689 44.7644 54.6894 42.8353" stroke="#2D2D2F" stroke-width="1.33694" stroke-linecap="round"/>
<path d="M15.4666 15.2732L10.8257 5.54279L21.5467 5.93413C22.9448 9.88799 23.8263 10.225 25.919 11.8903C23.9803 13.1371 23.4229 14.0927 23.2647 16.2025C20.2133 14.9353 18.4513 14.4683 15.4666 15.2732Z" fill="#FFFF54"/>
<path d="M10.8257 5.54279L17.887 9.98806" stroke="#2D2D2F" stroke-width="1.33694"/>
<ellipse cx="18.1966" cy="10.3014" rx="1.37149" ry="1.59239" transform="rotate(138.617 18.1966 10.3014)" fill="#2D2D2F"/>
<path d="M25.8258 11.5058C23.9918 12.6961 23.5834 14.1143 23.3259 16.5058L58.6634 38.2396C63.3633 39.5544 65.4914 34.7848 62.8259 32.0058L25.8258 11.5058Z" fill="#FFFF54" stroke="#2D2D2F" stroke-width="1.33694"/>
</svg>
