<svg width="299" height="65" viewBox="0 0 299 65" fill="none" xmlns="http://www.w3.org/2000/svg">
<path d="M109.217 18.1699V23.8124H102.256V46.5058H96.5427V23.8124H89.5642V18.1699H109.217ZM127.902 46.5058L126.109 42.5507H114.771L112.961 46.5058H106.808L120.344 17.4667H120.519L134.072 46.5058H127.902ZM116.986 37.6992H123.894L120.449 30.123L116.986 37.6992ZM137.447 46.5058V34.3417L128.676 18.1699H135.109L140.277 28.0136L145.445 18.1699H151.896L143.107 34.3417V46.5058H137.447ZM160.439 40.8456H171.83V46.5058H154.744V18.1699H160.439V40.8456ZM187.633 47.0507C179.547 47.0507 172.92 40.4413 172.92 32.373C172.92 24.2343 179.547 17.5898 187.65 17.5898C195.754 17.5898 202.398 24.2343 202.398 32.373C202.398 40.4413 195.754 47.0507 187.633 47.0507ZM187.633 41.2851C192.59 41.2851 196.633 37.2597 196.633 32.3378C196.633 27.3808 192.59 23.3378 187.633 23.3378C182.693 23.3378 178.668 27.3808 178.668 32.3378C178.668 37.2597 182.693 41.2851 187.633 41.2851ZM227.799 46.5058H220.838L211.82 33.1113V46.5058H206.125L206.107 18.1699H215.353C220.644 18.1699 224.986 22.248 224.986 27.3456C224.986 30.9843 222.789 34.166 219.748 35.2382L227.799 46.5058ZM211.802 23.8124V30.9316L215.459 30.9492C217.392 30.9667 219.115 29.4023 219.115 27.3808C219.115 25.3593 217.375 23.8124 215.459 23.8124H211.802ZM246.748 40.8456H258.138V46.5058H241.052V18.1699H246.748V40.8456ZM261.338 46.5058V18.1699H267.033V46.5058H261.338ZM282.642 47.121C276.613 47.121 271.709 42.4453 271.709 36.0292V18.1699H277.439V36.0117C277.439 39.1054 279.883 41.3554 282.625 41.3554C285.367 41.3554 287.845 39.0878 287.845 36.0117V18.1699H293.576V36.0292C293.576 42.4453 288.672 47.121 282.642 47.121Z" fill="#FFFF54"/>
<path d="M31.776 14.4463C27.5322 10.2952 30.059 3.60183 38.2887 4.25171C49.9842 -1.24378 62.0688 5.09286 66.8735 17.5555C71.9759 31.3058 67.0473 43.1074 63.0368 49.1655C53.6713 60.8826 35.9115 67.9194 20.2108 53.0388C18.3641 52.0846 16.3259 51.5058 14.8259 51.0058C11.459 49.2293 13.3256 47.5058 14.3257 45.0058C14.9814 39.4704 19.3256 42.0058 22.164 41.1896C24.567 40.4986 25.3256 41.0058 27.9394 43.7473C30.6049 46.5263 33.446 44.8397 33.8906 39.5302C33.7867 36.5733 33.8434 35.4195 30.8163 31.0077C25.9293 29.3764 24.2579 22.0735 29.4373 20.8802C29.4373 20.8802 36.0197 18.5973 31.776 14.4463Z" fill="#FFFF54"/>
<path d="M38.2887 4.25171C30.059 3.60183 27.5322 10.2952 31.776 14.4463C36.0197 18.5973 29.4373 20.8802 29.4373 20.8802C24.2579 22.0735 25.9293 29.3764 30.8163 31.0077M38.2887 4.25171C49.9842 -1.24378 62.0688 5.09286 66.8735 17.5555C71.9759 31.3058 67.0473 43.1074 63.0368 49.1655C53.6713 60.8826 35.9115 67.9194 20.2108 53.0388C18.3641 52.0846 16.3259 51.5058 14.8259 51.0058C11.459 49.2293 13.3256 47.5058 14.3257 45.0058C14.9814 39.4704 19.3256 42.0058 22.164 41.1896C24.567 40.4986 25.3256 41.0058 27.9394 43.7473C30.6049 46.5263 33.446 44.8397 33.8906 39.5302C33.7867 36.5733 33.8434 35.4195 30.8163 31.0077M38.2887 4.25171C54.4929 7.71628 57.5666 25.475 54.8306 28.6385C47.9207 33.2537 39.8184 34.9849 30.8163 31.0077" stroke="#2635BA" stroke-width="1.33694"/>
<path d="M41.6553 9.94951C35.5631 6.24415 30.8993 9.06588 32.7813 14.7045L33.9503 17.2602L33.1434 19.7916L30.5829 20.7985C28.3615 21.9462 28.7815 24.8343 30.9684 26.2138C35.5124 29.0801 45.0026 31.7003 51.6506 25.5662C50.622 20.3616 49.9092 14.9696 41.6553 9.94951Z" fill="#2635BA"/>
<path d="M69.6411 23.502C68.2708 17.5802 67.0259 14.3048 62.8259 8.64856C71.0688 8.65128 81.836 12.2433 78.3634 16.6137C76.0672 19.128 74.9375 20.6744 74.154 24.5002C73.7726 26.0476 73.1731 26.3741 69.6411 23.502Z" fill="#FFFF54"/>
<path d="M67.3937 42.4276C69.1442 39.0696 69.189 36.3133 69.9069 31.6821C72.0151 36.3936 77.8256 40.1744 74.1447 43.4087C71.7711 46.4403 71.4044 45.1343 69.7401 44.3599C68.9054 43.8905 66.3839 44.1251 67.3937 42.4276Z" fill="#FFFF54"/>
<path d="M14.4976 51.5736C16.6426 52.0787 16.1409 51.6953 17.0094 52.5487C17.1984 52.7344 17.1121 53.0603 16.8561 53.1285C13.5172 54.0185 13.9762 54.4559 10.5832 56.4763C6.93166 58.3988 5.10967 58.0111 3.74384 55.1489C2.67814 52.9158 4.49661 46.9785 4.72676 41.2247C5.85849 33.6967 9.96877 33.2995 16.0213 31.1846C24.2186 28.1654 24.8733 29.5855 25.3259 35.5058C25.4245 36.6786 25.2104 37.4969 25.0115 38.214C24.9084 38.5855 23.8626 39.6802 23.5117 39.84C22.9771 40.0833 22.055 40.341 20.4538 40.4745L17.9538 40.4745C14.965 40.4745 14.6605 41.0907 13.4672 44.9312C13.4585 44.9593 13.4454 44.9878 13.4297 45.0126C11.1397 48.6538 11.9626 50.9766 14.4976 51.5736Z" fill="#FFFF54"/>
<ellipse cx="2.0834" cy="2.41297" rx="2.0834" ry="2.41297" transform="matrix(0.86394 -0.503595 0.501849 0.864955 56.0847 15.3607)" fill="#2635BA"/>
<path d="M52.4771 36.5182C50.5217 39.3296 49.505 39.7917 46.568 38.1065M52.4239 48.1506C49.3921 49.7708 47.8971 51.2322 43.3631 48.7956C40.6455 46.7928 38.6081 46.0514 39.7833 37.7116C40.5873 34.5619 41.9547 35.2009 45.4933 37.4523C45.8789 37.6977 46.2357 37.9158 46.568 38.1065M46.568 38.1065C44.8968 41.1092 44.9605 44.4114 48.1233 45.5116C52.6417 47.0832 52.689 44.7644 54.6894 42.8353" stroke="#2635BA" stroke-width="1.33694" stroke-linecap="round"/>
<path d="M15.4666 15.2732L10.8257 5.54279L21.5467 5.93412C22.9448 9.88798 23.8263 10.225 25.919 11.8903C23.9803 13.1371 23.4229 14.0927 23.2647 16.2025C20.2133 14.9353 18.4513 14.4683 15.4666 15.2732Z" fill="#FFFF54"/>
<path d="M10.8257 5.54279L17.887 9.98806" stroke="#2635BA" stroke-width="1.33694"/>
<ellipse cx="18.1966" cy="10.3014" rx="1.37149" ry="1.59239" transform="rotate(138.617 18.1966 10.3014)" fill="#2635BA"/>
<path d="M25.8258 11.5058C23.9918 12.696 23.5834 14.1143 23.3259 16.5058L58.6634 38.2396C63.3633 39.5544 65.4914 34.7848 62.8259 32.0058L25.8258 11.5058Z" fill="#FFFF54" stroke="#2635BA" stroke-width="1.33694"/>
</svg>
