<svg width="325" height="65" viewBox="0 0 325 65" fill="none" xmlns="http://www.w3.org/2000/svg">
<path d="M99.9512 47.5625C95.3105 47.5625 91.8828 45.6289 89.9844 42.1133L94.5371 38.9141C95.7852 40.918 97.5957 41.832 100.039 41.832C102.711 41.832 104.504 40.7422 104.504 39.2305C104.504 37.1562 101.111 35.5215 98.1406 34.0449C94.959 32.4629 91.4609 30.7227 91.4609 26.2051C91.4609 21.3008 95.6094 18.0664 100.812 18.0664C104.68 18.0664 107.879 19.666 109.162 23.0938L104.961 26.0293C104.117 24.3418 102.482 23.6562 100.9 23.6562C98.7734 23.6562 97.1914 24.8867 97.1914 26.3457C97.1914 28.0332 99.3359 28.6133 102.588 30.1426C107.281 32.3574 110.234 34.748 110.234 39.1074C110.234 44.2754 106.016 47.5625 99.9512 47.5625ZM131.609 18.6641V24.3066H124.648V47H118.936V24.3066H111.957V18.6641H131.609ZM141.488 47V34.8359L132.717 18.6641H139.15L144.318 28.5078L149.486 18.6641H155.938L147.148 34.8359V47H141.488ZM164.48 41.3398H175.871V47H158.785V18.6641H164.48V41.3398ZM196.156 24.2715H184.766V29.8086H194.539V35.4863H184.766V41.3398H196.156V47H179.07V18.6641H196.156V24.2715ZM237.957 31.0918C238.045 31.918 238.098 32.709 238.098 33.4824C238.098 42.377 231.963 47.5625 224.58 47.5625C216.23 47.5625 209.656 40.9531 209.656 32.8672C209.656 24.7637 216.266 18.084 224.369 18.084C228.043 18.1191 231.963 19.8066 234.74 22.5137L231.576 27.2422C229.361 25.0801 226.83 23.8496 224.299 23.8496C219.904 23.8496 215.457 27.5762 215.457 32.8672C215.457 37.7891 219.289 41.832 224.826 41.832C228.869 41.832 231.77 39.7578 231.963 36.3477H224.633V31.0918H237.957ZM252.477 47.6152C246.447 47.6152 241.543 42.9395 241.543 36.5234V18.6641H247.273V36.5059C247.273 39.5996 249.717 41.8496 252.459 41.8496C255.201 41.8496 257.68 39.582 257.68 36.5059V18.6641H263.41V36.5234C263.41 42.9395 258.506 47.6152 252.477 47.6152ZM268.086 47V18.6641H273.781V47H268.086ZM286.947 18.6641C296.105 18.6465 301.695 24.0254 301.695 32.8672C301.695 41.6562 296.105 47 286.947 47H278.703V18.6816L286.947 18.6641ZM286.982 41.3223C292.555 41.3223 295.947 38.123 295.947 32.8496C295.947 27.541 292.537 24.3066 286.93 24.3066H284.381V41.3223H286.982ZM322.473 24.2715H311.082V29.8086H320.855V35.4863H311.082V41.3398H322.473V47H305.387V18.6641H322.473V24.2715Z" fill="#FFFF54"/>
<path d="M31.776 14.4463C27.5322 10.2952 30.059 3.60183 38.2887 4.25171C49.9842 -1.24378 62.0688 5.09286 66.8735 17.5555C71.9759 31.3058 67.0473 43.1074 63.0368 49.1655C53.6713 60.8826 35.9115 67.9194 20.2108 53.0388C18.3641 52.0846 16.3259 51.5058 14.8259 51.0058C11.459 49.2293 13.3256 47.5058 14.3257 45.0058C14.9814 39.4704 19.3256 42.0058 22.164 41.1896C24.567 40.4986 25.3256 41.0058 27.9394 43.7473C30.6049 46.5263 33.446 44.8397 33.8906 39.5302C33.7867 36.5733 33.8434 35.4195 30.8163 31.0077C25.9293 29.3764 24.2579 22.0735 29.4373 20.8802C29.4373 20.8802 36.0197 18.5973 31.776 14.4463Z" fill="#FFFF54"/>
<path d="M38.2887 4.25171C30.059 3.60183 27.5322 10.2952 31.776 14.4463C36.0197 18.5973 29.4373 20.8802 29.4373 20.8802C24.2579 22.0735 25.9293 29.3764 30.8163 31.0077M38.2887 4.25171C49.9842 -1.24378 62.0688 5.09286 66.8735 17.5555C71.9759 31.3058 67.0473 43.1074 63.0368 49.1655C53.6713 60.8826 35.9115 67.9194 20.2108 53.0388C18.3641 52.0846 16.3259 51.5058 14.8259 51.0058C11.459 49.2293 13.3256 47.5058 14.3257 45.0058C14.9814 39.4704 19.3256 42.0058 22.164 41.1896C24.567 40.4986 25.3256 41.0058 27.9394 43.7473C30.6049 46.5263 33.446 44.8397 33.8906 39.5302C33.7867 36.5733 33.8434 35.4195 30.8163 31.0077M38.2887 4.25171C54.4929 7.71628 57.5666 25.475 54.8306 28.6385C47.9207 33.2537 39.8184 34.9849 30.8163 31.0077" stroke="#2635BA" stroke-width="1.33694"/>
<path d="M41.6553 9.94951C35.5631 6.24415 30.8993 9.06588 32.7813 14.7045L33.9503 17.2602L33.1434 19.7916L30.5829 20.7985C28.3615 21.9462 28.7815 24.8343 30.9684 26.2138C35.5124 29.0801 45.0026 31.7003 51.6506 25.5662C50.622 20.3616 49.9092 14.9696 41.6553 9.94951Z" fill="#2635BA"/>
<path d="M69.6411 23.502C68.2708 17.5802 67.0259 14.3048 62.8259 8.64856C71.0688 8.65128 81.836 12.2433 78.3634 16.6137C76.0672 19.128 74.9375 20.6744 74.154 24.5002C73.7726 26.0476 73.1731 26.3741 69.6411 23.502Z" fill="#FFFF54"/>
<path d="M67.3937 42.4276C69.1442 39.0696 69.189 36.3133 69.9069 31.6821C72.0151 36.3936 77.8256 40.1744 74.1447 43.4087C71.7711 46.4403 71.4044 45.1343 69.7401 44.3599C68.9054 43.8905 66.3839 44.1251 67.3937 42.4276Z" fill="#FFFF54"/>
<path d="M14.4976 51.5736C16.6426 52.0787 16.1409 51.6953 17.0094 52.5487C17.1984 52.7344 17.1121 53.0603 16.8561 53.1285C13.5172 54.0185 13.9762 54.4559 10.5832 56.4763C6.93166 58.3988 5.10967 58.0111 3.74384 55.1489C2.67814 52.9158 4.49661 46.9785 4.72676 41.2247C5.85849 33.6967 9.96877 33.2995 16.0213 31.1846C24.2186 28.1654 24.8733 29.5855 25.3259 35.5058C25.4245 36.6786 25.2104 37.4969 25.0115 38.214C24.9084 38.5855 23.8626 39.6802 23.5117 39.84C22.9771 40.0833 22.055 40.341 20.4538 40.4745L17.9538 40.4745C14.965 40.4745 14.6605 41.0907 13.4672 44.9312C13.4585 44.9593 13.4454 44.9878 13.4297 45.0126C11.1397 48.6538 11.9626 50.9766 14.4976 51.5736Z" fill="#FFFF54"/>
<ellipse cx="2.0834" cy="2.41297" rx="2.0834" ry="2.41297" transform="matrix(0.86394 -0.503595 0.501849 0.864955 56.0847 15.3607)" fill="#2635BA"/>
<path d="M52.4771 36.5182C50.5217 39.3296 49.505 39.7917 46.568 38.1065M52.4239 48.1506C49.3921 49.7708 47.8971 51.2322 43.3631 48.7956C40.6455 46.7928 38.6081 46.0514 39.7833 37.7116C40.5873 34.5619 41.9547 35.2009 45.4933 37.4523C45.8789 37.6977 46.2357 37.9158 46.568 38.1065M46.568 38.1065C44.8968 41.1092 44.9605 44.4114 48.1233 45.5116C52.6417 47.0832 52.689 44.7644 54.6894 42.8353" stroke="#2635BA" stroke-width="1.33694" stroke-linecap="round"/>
<path d="M15.4666 15.2732L10.8257 5.54279L21.5467 5.93412C22.9448 9.88798 23.8263 10.225 25.919 11.8903C23.9803 13.1371 23.4229 14.0927 23.2647 16.2025C20.2133 14.9353 18.4513 14.4683 15.4666 15.2732Z" fill="#FFFF54"/>
<path d="M10.8257 5.54279L17.887 9.98806" stroke="#2635BA" stroke-width="1.33694"/>
<ellipse cx="18.1966" cy="10.3014" rx="1.37149" ry="1.59239" transform="rotate(138.617 18.1966 10.3014)" fill="#2635BA"/>
<path d="M25.8258 11.5058C23.9918 12.696 23.5834 14.1143 23.3259 16.5058L58.6634 38.2396C63.3633 39.5544 65.4914 34.7848 62.8259 32.0058L25.8258 11.5058Z" fill="#FFFF54" stroke="#2635BA" stroke-width="1.33694"/>
</svg>
